<svg aria-hidden="true" style="position: absolute; width: 0; height: 0; overflow: hidden;" version="1.1" xmlns="http://www.w3.org/2000/svg" xmlns:xlink="http://www.w3.org/1999/xlink">
<defs>
<symbol id="icon-phone" viewBox="0 0 32 32"><path d="M22 20c-2 2-2 4-4 4s-4-2-6-4-4-4-4-6 2-2 4-4-4-8-6-8-6 6-6 6c0 4 4.11 12.11 8 16s12 8 16 8c0 0 6-4 6-6s-6-8-8-6z"></path></symbol>
<symbol id="icon-mail" viewBox="0 0 32 32"><path d="M26.666 0h-21.332c-2.934 0-5.334 2.4-5.334 5.334v21.332c0 2.934 2.4 5.334 5.334 5.334h21.332c2.936 0 5.334-2.4 5.334-5.334v-21.332c0-2.934-2.398-5.334-5.334-5.334zM8 8h16c0.286 0 0.562 0.062 0.818 0.176l-8.818 10.286-8.818-10.286c0.254-0.116 0.532-0.176 0.818-0.176zM6 22v-12c0-0.042 0.002-0.084 0.004-0.126l5.864 6.842-5.8 5.8c-0.046-0.166-0.068-0.34-0.068-0.516zM24 24h-16c-0.176 0-0.35-0.024-0.516-0.068l5.692-5.692 2.826 3.296 2.826-3.296 5.692 5.692c-0.166 0.046-0.34 0.068-0.516 0.068zM26 22c0 0.176-0.024 0.35-0.068 0.516l-5.8-5.8 5.864-6.842c0.002 0.042 0.004 0.084 0.004 0.126v12z"></path></symbol>
<symbol id="icon-linkedin" viewBox="0 0 32 32"><path d="M29 0h-26c-1.65 0-3 1.35-3 3v26c0 1.65 1.35 3 3 3h26c1.65 0 3-1.35 3-3v-26c0-1.65-1.35-3-3-3zM12 26h-4v-14h4v14zM10 10c-1.106 0-2-0.894-2-2s0.894-2 2-2c1.106 0 2 0.894 2 2s-0.894 2-2 2zM26 26h-4v-8c0-1.106-0.894-2-2-2s-2 0.894-2 2v8h-4v-14h4v2.482c0.824-1.132 2.088-2.482 3.5-2.482 2.488 0 4.5 2.238 4.5 5v9z"></path></symbol>
<symbol id="icon-github" viewBox="0 0 32 32"><path d="M16 0.396c-8.836 0-16 7.164-16 16 0 7.070 4.584 13.066 10.942 15.182 0.8 0.148 1.094-0.348 1.094-0.77 0-0.382-0.016-1.642-0.022-2.978-4.452 0.968-5.39-1.888-5.39-1.888-0.728-1.85-1.776-2.342-1.776-2.342-1.452-0.994 0.11-0.972 0.11-0.972 1.606 0.112 2.452 1.648 2.452 1.648 1.428 2.446 3.744 1.738 4.656 1.33 0.144-1.034 0.558-1.74 1.016-2.14-3.554-0.404-7.29-1.776-7.29-7.908 0-1.746 0.626-3.174 1.648-4.294-0.166-0.404-0.714-2.030 0.154-4.234 0 0 1.344-0.43 4.402 1.64 1.276-0.354 2.644-0.532 4.004-0.538 1.36 0.006 2.73 0.184 4.008 0.538 3.054-2.070 4.396-1.64 4.396-1.64 0.87 2.204 0.324 3.832 0.158 4.234 1.026 1.12 1.646 2.548 1.646 4.294 0 6.146-3.744 7.498-7.306 7.894 0.574 0.496 1.086 1.47 1.086 2.962 0 2.14-0.018 3.864-0.018 4.39 0 0.426 0.288 0.924 1.1 0.768 6.354-2.118 10.932-8.114 10.932-15.18 0-8.836-7.164-16-16-16z"></path></symbol>
<symbol id="icon-telegram" viewBox="0 0 32 32"><path d="M16 0c-8.838 0-16 7.162-16 16s7.162 16 16 16 16-7.162 16-16-7.162-16-16-16zM23.862 10.968l-2.626 12.368c-0.182 0.882-0.712 1.088-1.45 0.682l-4-2.956-1.918 1.868c-0.224 0.218-0.4 0.4-0.8 0.4-0.518 0-0.432-0.194-0.606-0.688l-1.362-4.474-3.956-1.232c-0.856-0.262-0.862-0.85 0.194-1.268l15.412-5.95c0.7-0.318 1.382 0.168 1.112 1.25z"></path></symbol>
</defs>
</svg>